<svg xmlns="http://www.w3.org/2000/svg" viewBox="0 0 108 108">
  <rect width="108" height="108" fill="#0D1B4B"/>
  <path fill="#F59E0B" d="M54,22 L14,29 L14,85 L54,78 Z"/>
  <path fill="#FCD34D" d="M54,22 L94,29 L94,85 L54,78 Z"/>
  <path fill="#D97706" d="M51,22 L57,22 L57,78 L51,78 Z"/>
  <path fill="#B45309" d="M22,42 L48,39 L48,41 L22,44 Z"/>
  <path fill="#B45309" d="M22,52 L48,49 L48,51 L22,54 Z"/>
  <path fill="#B45309" d="M22,62 L48,59 L48,61 L22,64 Z"/>
  <path fill="#92400E" d="M60,39 L86,42 L86,44 L60,41 Z"/>
  <path fill="#92400E" d="M60,49 L86,52 L86,54 L60,51 Z"/>
  <path fill="#92400E" d="M60,59 L86,62 L86,64 L60,61 Z"/>
</svg>
